<svg width="741" height="887" viewBox="0 0 741 887" fill="none" xmlns="http://www.w3.org/2000/svg">
<path fill-rule="evenodd" clip-rule="evenodd" d="M111.518 630.345C160.391 691.443 230.736 718.805 315.784 718.805C426.467 718.805 487.32 709.337 546.831 683.18C604.442 657.857 641.197 616.346 677.77 516.635C733.941 363.489 719.798 258.45 666.284 183.546C612.01 107.579 521.417 67.6767 427.246 42.2118C267.629 -0.950196 168.38 29.8024 104.533 98.0986C39.5826 167.575 15.3468 278.573 20.2358 379.613C25.1349 480.86 62.3386 568.863 111.518 630.345ZM304.448 739.071C123.36 739.071 11.0955 583.174 1.03773 375.313C-9.02007 167.451 108.322 -68.9055 436.878 19.939C628.826 71.8437 820.748 211.037 705.471 525.327C630.485 729.766 524.043 739.071 304.448 739.071Z" fill="#FEFCFC" fill-opacity="0.25"/>
<path d="M203.893 884.521C201.519 885.481 198.125 886.654 195.077 886.812C193.563 886.89 191.65 886.749 189.953 885.753C188.023 884.622 186.919 882.717 186.692 880.463C186.485 878.42 186.987 876.145 187.909 873.725C188.851 871.25 190.355 868.311 192.491 864.827C204.989 844.436 219.478 819.083 235.961 788.754C282.104 700.31 287.96 690.198 323.615 597.495C341.146 551.914 364.969 499.989 364.969 450.248C364.969 436.234 347.614 395.049 374.605 395.049C377.433 395.049 380.101 395.657 382.349 397.155C398.56 407.963 387.483 445.552 385.178 458.805L385.167 458.865L385.155 458.925C375.547 505.042 363.304 550.307 348.395 595.037L348.38 595.079C321.156 673.55 243.54 848.991 203.893 884.521Z" fill="#FEFCFC" fill-opacity="0.25"/>
</svg>
