<svg width="801" height="801" viewBox="0 0 801 801" fill="none" xmlns="http://www.w3.org/2000/svg">
<rect x="0.463623" y="0.305664" width="800" height="800" fill="#EAE2DB"/>
<path d="M179.768 382.08C185.778 506.275 252.854 599.421 361.052 599.421C492.258 599.421 555.856 593.862 600.659 471.712C669.536 283.927 554.865 200.76 440.178 169.748C243.87 116.664 173.759 257.885 179.768 382.08Z" fill="#FEFCFC"/>
<path d="M301.058 684.716C299.64 685.29 297.612 685.991 295.791 686.085C294.887 686.132 293.744 686.047 292.73 685.453C291.577 684.777 290.918 683.639 290.781 682.292C290.658 681.071 290.958 679.713 291.509 678.267C292.072 676.788 292.97 675.032 294.246 672.95C301.713 660.768 310.37 645.62 320.218 627.5C347.786 574.659 351.285 568.617 372.587 513.231C383.061 485.998 397.295 454.975 397.295 425.257C397.295 416.884 386.926 392.278 403.052 392.278C404.741 392.278 406.336 392.641 407.679 393.536C417.364 399.993 410.745 422.451 409.368 430.369L409.362 430.405L409.355 430.441C403.614 457.994 396.3 485.038 387.392 511.762L387.384 511.788C371.118 558.67 324.746 663.489 301.058 684.716Z" fill="#343130"/>
</svg>
