<svg width="109" height="8" viewBox="0 0 109 8" fill="none" xmlns="http://www.w3.org/2000/svg">
<path d="M108.579 6.1191L104.58 6.52708C104.848 7.63498 107.395 6.03111 106.975 7.71896L88.7611 7.73896C87.8172 7.72296 86.9412 7.32701 85.9933 7.30701C64.4272 6.82705 42.7811 6.75905 21.167 6.55107C20.4951 6.2391 19.5032 5.57516 20.1871 4.93122C19.4072 4.15129 11.2839 4.81123 9.58804 4.93122C8.18417 5.03121 0.224869 6.70306 0.192871 4.72723C0.672829 4.00329 1.24877 4.15928 1.96471 4.10729C26.9305 2.32745 51.2444 0.419595 76.3942 0.911553C84.2655 1.06754 92.2928 1.27554 99.9721 2.53143C102.48 2.9394 105.084 2.97537 107.371 4.13527L106.572 5.32318L108.571 6.12311L108.579 6.1191Z" fill="#AFA7A7"/>
</svg>
