<svg width="282" height="209" viewBox="0 0 282 209" fill="none" xmlns="http://www.w3.org/2000/svg">
<path d="M97.5167 44.1029C98.7008 68.5752 111.918 86.9296 133.238 86.9296C159.092 86.9296 171.624 85.8341 180.452 61.7647C194.024 24.762 171.429 8.3743 148.83 2.26335C110.148 -8.19667 96.3325 19.6306 97.5167 44.1029Z" fill="#FEFCFC"/>
<path d="M121.417 103.737C121.137 103.85 120.737 103.988 120.379 104.007C120.2 104.016 119.975 103.999 119.775 103.882C119.548 103.749 119.418 103.525 119.391 103.259C119.367 103.019 119.426 102.751 119.535 102.466C119.646 102.175 119.823 101.829 120.074 101.418C121.546 99.0178 123.251 96.033 125.192 92.4625C130.624 82.0502 131.314 80.8598 135.511 69.946C137.575 64.5799 140.38 58.4668 140.38 52.611C140.38 50.9612 138.337 46.1125 141.514 46.1125C141.847 46.1125 142.161 46.184 142.426 46.3605C144.334 47.6328 143.03 52.058 142.759 53.6183L142.758 53.6254L142.756 53.6325C141.625 59.0618 140.184 64.3907 138.428 69.6566L138.427 69.6616C135.222 78.8998 126.084 99.5541 121.417 103.737Z" fill="#343130"/>
<path d="M236.102 163.137C234.887 162.407 234.32 161.191 234.32 158.353V105.238H233.753L226.139 106.941V107.59C227.678 107.833 227.921 108.644 227.921 111.482V158.353C227.921 161.191 227.354 162.407 226.139 163.137V163.705H236.102V163.137Z" fill="#343130"/>
<path d="M56.0946 147.405L56.6616 147.649C52.2877 156.731 44.5118 164.191 30.175 164.191C14.2182 164.191 0.367432 151.217 0.367432 135.161C0.367432 119.105 14.8662 106.13 30.904 106.13C39.6518 106.13 44.9168 108.401 51.8017 112.942L49.3717 122.186H48.8047C42.8918 112.78 33.2529 105.806 22.6421 108.076C8.79131 111.077 3.76938 127.457 8.14332 141.81C12.5173 156.082 24.1811 163.542 38.4369 161.353C45.7268 160.299 51.9637 155.514 56.0946 147.405Z" fill="#343130"/>
<path d="M96.2763 125.349C92.7934 128.917 89.9584 132.89 86.9615 140.35C86.9615 140.35 80.4816 156.487 77.5656 163.705C74.6497 171.003 71.0047 177.085 64.6058 177.085C60.2319 177.085 57.0729 175.057 55.0479 171.327L61.3659 165.57L61.8518 165.975C61.0419 170.516 61.9328 176.76 66.3878 176.274C70.5997 175.787 73.9207 170.435 76.5936 164.434L66.2258 140.026C62.8238 132.079 61.1228 128.592 57.2349 125.349V124.7H69.6277V125.349C67.6028 127.538 68.2507 129.728 70.1137 134.269L79.7526 156.812L86.3945 140.269C89.3914 132.809 90.3634 128.349 86.7185 125.349V124.7H96.2763V125.349Z" fill="#343130"/>
<path fill-rule="evenodd" clip-rule="evenodd" d="M140.466 140.675C140.142 130.376 132.042 124.7 125.4 124.7C114.06 124.7 109.929 137.512 108.471 146.919V124.7H107.904L100.29 126.484V127.052C101.829 127.295 102.072 128.106 102.072 130.944V177.74H102.639L110.253 175.956V175.388C108.714 175.145 108.471 174.334 108.471 171.496V163.461C109.848 163.867 111.468 164.191 113.25 164.191C122.322 164.191 140.952 160.785 140.466 140.675ZM134.148 139.54C135.282 160.218 121.107 163.623 113.331 163.705C110.739 163.786 108.876 163.137 108.471 162.975V151.703C108.471 144.892 112.764 127.944 121.836 126.16C128.802 124.781 133.743 132.485 134.148 139.54Z" fill="#343130"/>
<path d="M161.108 124.7C165.32 124.7 170.828 127.376 174.068 129.89L172.448 137.35H172.043C169.532 130.457 164.348 125.43 159.731 125.43C154.223 125.43 151.145 128.511 150.74 131.836C150.199 137.02 156.129 139.066 162.382 141.224C169.236 143.589 176.478 146.089 176.012 153.001C175.526 159.407 169.532 164.191 160.46 164.191C153.899 164.191 149.039 162.002 144.666 158.758L146.366 150.649H146.771C149.525 156.325 155.6 163.056 162.809 163.056C168.641 163.056 173.015 160.055 173.501 156.569C174.195 151.781 168.835 150.107 162.915 148.257C155.698 146.002 147.648 143.487 148.715 134.755C149.363 129.484 152.279 124.7 161.108 124.7Z" fill="#343130"/>
<path fill-rule="evenodd" clip-rule="evenodd" d="M219.771 137.512C218.637 127.7 209.16 124.376 202.275 124.7C193.365 125.187 180.649 131.268 181.054 145.297C181.378 158.677 192.15 164.191 203.328 164.191C214.83 164.191 219.933 156.569 220.419 150.811C220.424 150.758 220.428 150.704 220.432 150.65H219.724C219.714 150.758 219.703 150.865 219.69 150.973C218.88 157.299 212.805 162.083 205.839 162.407C197.577 162.732 191.503 159.001 188.506 150.487C187.129 146.595 186.886 141.81 187.939 137.512C203.206 137.512 213.196 137.512 219.771 137.512ZM188.101 136.864C189.559 131.35 193.122 126.727 198.63 125.673C206.568 124.132 212.886 129.809 213.939 136.864H188.101Z" fill="#343130"/>
<path d="M210.195 116.339C208.586 114.812 205.328 111.721 200.493 107.428C198.873 105.968 197.415 106.455 196.686 107.509C195.957 108.482 195.876 110.023 197.82 111.158C203.652 114.564 207.945 116.51 209.889 117.24L210.375 116.51C210.318 116.455 210.258 116.398 210.195 116.339Z" fill="#343130"/>
<path fill-rule="evenodd" clip-rule="evenodd" d="M280.652 137.512C279.518 127.7 270.041 124.376 263.156 124.7C254.246 125.186 241.53 131.268 241.935 145.297C242.259 158.677 253.031 164.191 264.209 164.191C275.711 164.191 280.814 156.569 281.3 150.811C281.305 150.757 281.309 150.704 281.313 150.65H280.605C280.595 150.757 280.583 150.865 280.571 150.973C279.761 157.298 273.686 162.083 266.72 162.407C258.458 162.731 252.383 159.001 249.387 150.487C248.01 146.594 247.767 141.81 248.82 137.512C264.087 137.512 274.077 137.512 280.652 137.512ZM248.982 136.863C250.439 131.349 254.003 126.727 259.511 125.673C267.449 124.132 273.767 129.809 274.82 136.863H248.982Z" fill="#343130"/>
<path d="M90.9675 208.571V195.151H96.4174C99.1912 195.151 101.359 196.929 101.359 199.449C101.359 201.968 99.1912 203.746 96.4174 203.746H92.4911V208.571H90.9675ZM92.4911 202.301H96.1439C98.3317 202.301 99.8163 201.246 99.8163 199.449C99.8163 197.651 98.3317 196.597 96.1439 196.597H92.4911V202.301ZM125.289 208.571L123.941 205.524H116.46L115.112 208.571H113.452L119.37 195.151H121.031L126.949 208.571H125.289ZM117.085 204.078H123.316L120.21 197.026L117.085 204.078ZM151.507 199.449C151.507 201.734 149.729 203.414 147.326 203.707L150.745 208.571H149.006L145.607 203.746H142.638V208.571H141.115V195.151H146.564C149.338 195.151 151.507 196.929 151.507 199.449ZM142.638 196.597V202.301H146.291C148.479 202.301 149.963 201.246 149.963 199.449C149.963 197.651 148.479 196.597 146.291 196.597H142.638ZM165.768 208.571V195.151H167.292V208.571H165.768ZM186.489 208.786C184.281 208.786 182.543 207.985 181.195 206.657L182.152 205.465C183.285 206.598 184.672 207.399 186.547 207.399C188.618 207.399 189.673 206.266 189.673 205.055C189.673 203.629 188.403 203.062 186.059 202.515C183.363 201.89 181.664 201.05 181.664 198.726C181.664 196.577 183.578 194.897 186.156 194.897C188.149 194.897 189.633 195.679 190.864 196.812L189.926 198.003C188.813 196.929 187.485 196.284 186.078 196.284C184.418 196.284 183.207 197.378 183.207 198.609C183.207 199.996 184.535 200.484 186.821 201.031C189.38 201.636 191.216 202.554 191.216 204.918C191.216 207.047 189.614 208.786 186.489 208.786Z" fill="#343130"/>
</svg>
